# xmcd
#
# Track frame offsets:
#	150
#	19263
#	32793
#	48128
#	68703
#	94650
#	113425
#	135660
#	158070
#	172010
#
# Disc length: 2524 seconds
#
# Revision: 1
# Processed by: cddbd v1.4PL0 Copyright (c) Steve Scherf et al.
# Submitted via: EasyCDDAExtractor 5.0.7
#
DISCID=7709da0a
DTITLE=Various Artist - Chacha-Bebop
DYEAR=1900
DGENRE=
TTITLE0=Thai Thao - Tinh yeu
TTITLE1=Minh Xuan - Oh lala
TTITLE2=Vu Khanh - Sau dong
TTITLE3=Kieu Nga - Nhay mua hat ca
TTITLE4=Duy Quang - Co gai ma quai
TTITLE5=Nhu Mai - Dem vui
TTITLE6=M Xuan M Phuc - Mickey
TTITLE7=Nhat Ha - May lang thang
TTITLE8=Thai Hien - Tinh Xanh
TTITLE9=Thanh Mai - Nay co em
EXTD=
EXTT0=
EXTT1=
EXTT2=
EXTT3=
EXTT4=
EXTT5=
EXTT6=
EXTT7=
EXTT8=
EXTT9=
PLAYORDER=
